<svg height="321pt" preserveAspectRatio="xMidYMid meet" viewBox="0 0 321 321" width="321pt" xmlns="http://www.w3.org/2000/svg"><g transform="matrix(.1 0 0 -.1 0 321)"><path d="m905 2984c-220-91-408-173-418-183-18-17-18-74-20-1287l-2-1269 68-34c93-47 182-48 307-5l85 29 3 1242 2 1241-97-5c-146-8-316 17-291 42 3 4 183 81 399 172 217 91 397 170 401 176 9 14-9 47-25 46-7 0-192-75-412-165zm-282-573c43-6 114-11 158-11 79 0 79 0 79-26v-27l-132 6c-73 4-152 10-175 13-39 6-43 9-43 36 0 23 4 28 18 24 9-3 52-10 95-15zm0-130c43-6 114-11 158-11 79 0 79 0 79-26v-27l-132 6c-73 4-152 10-175 13-39 6-43 9-43 36 0 23 4 28 18 24 9-3 52-10 95-15zm6-1155c46-9 121-16 167-16h84v-125-125h-82c-86 0-186 13-250 32l-38 11v124c0 114 1 124 18 119 9-3 55-12 101-20z"/><path d="m1418 2917-428-182v-1252-1253l38-24c121-81 285-79 420 4l32 20v1228 1227l-167-3c-175-4-236 5-214 31 5 7 184 85 395 172 212 88 388 165 390 172 5 12-19 44-32 42-4 0-199-82-434-182zm-230-527c52-6 123-7 158-4l64 7v-32-31h-87c-48 0-126 5-175 11l-88 12v29c0 23 4 28 18 24 9-3 59-10 110-16zm0-130c52-6 123-7 158-4l64 7v-32-31h-87c-48 0-126 5-175 11l-88 12v29c0 23 4 28 18 24 9-3 59-10 110-16zm-21-1151c50-6 124-9 171-5l82 6v-125-125h-122c-67 0-150 5-185 11l-63 11v125c0 106 2 124 15 119 8-3 54-10 102-17z"/><path d="m1936 2902-409-177 6-1243c4-988 8-1246 18-1258 47-57 204-81 314-49 33 9 81 28 107 41l48 24v1208 1208h-172c-169 1-244 12-222 34 5 5 174 82 374 171 201 88 369 165 375 170 10 10-4 41-21 45-5 1-193-77-418-174zm-108-536h132v-28-28h-127c-71 0-152 3-180 6-50 6-53 8-53 36v29l48-8c26-4 107-7 180-7zm0-130h132v-28-28h-127c-71 0-152 3-180 6-50 6-53 8-53 36v29l48-8c26-4 107-7 180-7zm132-1241c0-112-2-125-17-125-10 0-61-5-113-10s-128-7-167-3l-73 6v122 122l113-4c61-2 139 0 172 5s66 10 73 11c9 1 12-30 12-124z"/><path d="m955 2915c-190-79-349-146-352-149-22-22 68 11 379 139 194 80 356 144 361 142 5-1-137-62-315-135-344-141-377-157-315-148 21 3 48 0 61-5 18-9 82 14 381 137 198 81 364 150 368 154 5 4-43 7-107 7h-115zm484 131c-10-10-671-278-675-273-5 5 644 275 665 276 8 1 12-1 10-3z"/><path d="m1207 2905c-192-78-351-146-354-149-26-25 85 14 389 139 194 80 356 144 361 142 5-1-137-62-315-135-177-73-330-137-338-142-13-8-13-10 2-10 9 0 171 63 360 141s352 145 363 149c12 4-8 7-51 8-67 0-81-5-417-143z"/><path d="m1563 2897c-183-79-336-146-339-150-24-24 63 10 373 143 191 82 337 149 323 149s-175-64-357-142z"/><path d="m1643 2892c-183-82-335-151-339-155-24-23 62 9 368 140 189 80 347 150 353 155 5 4-4 8-20 8-17-1-179-67-362-148z"/><path d="m1722 2886c-183-78-335-145-338-149-24-24 63 9 363 138 186 80 342 144 346 142 5-1-132-63-304-136-173-74-318-138-323-143-30-26 58 7 369 141l348 149h-65c-62 0-84-8-396-142z"/><path d="m2057 2872c-252-110-333-149-319-155 13-6 111 32 352 136 306 132 374 168 323 167-10-1-170-67-356-148z"/><path d="m2148 2866c-181-78-331-146-335-151-9-9 31-2 61 10 14 6 17 5 12-3-15-24 26-10 245 83 123 52 224 93 226 91s-89-43-201-92c-152-65-201-91-190-97 10-6 26-5 41 2 30 14 36 14 28 1-11-17 22-11 81 15 32 14 59 23 61 21s-21-14-51-27l-56-23v-1213-1213l88 54c48 30 200 124 337 209l250 154v1154 1154l-22 3c-12 2-167-60-344-137s-324-139-326-137c-2 1 133 63 299 136 167 73 307 136 313 141 13 12-27 11-60-1-17-7-24-7-20 0 3 6-3 10-14 10s-31-4-46-10c-17-7-24-7-20 0 15 25-52 0-357-134zm322 109c-14-8-29-14-35-14-5 0 1 6 15 14s30 14 35 14c6 0-1-6-15-14zm80 0c-14-8-29-14-35-14-5 0 1 6 15 14s30 14 35 14c6 0-1-6-15-14zm170 5c-8-5-19-10-25-10-5 0-3 5 5 10s20 10 25 10c6 0 3-5-5-10zm-240-35c-14-8-29-14-35-14-5 0 1 6 15 14s30 14 35 14c6 0-1-6-15-14zm-90-5c-8-5-19-10-25-10-5 0-3 5 5 10s20 10 25 10c6 0 3-5-5-10zm20-25c-14-8-29-14-35-14-5 0 1 6 15 14s30 14 35 14c6 0-1-6-15-14zm-90-5c-8-5-19-10-25-10-5 0-3 5 5 10s20 10 25 10c6 0 3-5-5-10zm240 0c-8-5-19-10-25-10-5 0-3 5 5 10s20 10 25 10c6 0 3-5-5-10zm-320-35c-14-8-29-14-35-14-5 0 1 6 15 14s30 14 35 14c6 0-1-6-15-14zm240 0c-14-8-29-14-35-14-5 0 1 6 15 14s30 14 35 14c6 0-1-6-15-14zm-310-30c-14-8-29-14-35-14-5 0 1 6 15 14s30 14 35 14c6 0-1-6-15-14zm220-10c-14-8-29-14-35-14-5 0 1 6 15 14s30 14 35 14c6 0-1-6-15-14zm-290-20c-14-8-29-14-35-14-5 0 1 6 15 14s30 14 35 14c6 0-1-6-15-14zm220-10c-14-8-29-14-35-14-5 0 1 6 15 14s30 14 35 14c6 0-1-6-15-14zm-310-30c-14-8-29-14-35-14-5 0 1 6 15 14s30 14 35 14c6 0-1-6-15-14zm230-5c-19-11-39-19-45-19-5 0 6 8 25 19s40 19 45 19c6 0-6-8-25-19zm-300-25c-14-8-29-14-35-14-5 0 1 6 15 14s30 14 35 14c6 0-1-6-15-14z"/></g></svg>